<?xml version="1.0" encoding="utf-8"?>
<!-- Generator: Adobe Illustrator 16.0.4, SVG Export Plug-In . SVG Version: 6.00 Build 0)  -->
<!DOCTYPE svg PUBLIC "-//W3C//DTD SVG 1.1//EN" "http://www.w3.org/Graphics/SVG/1.1/DTD/svg11.dtd">
<svg version="1.1" id="Layer_1" xmlns="http://www.w3.org/2000/svg" xmlns:xlink="http://www.w3.org/1999/xlink" x="0px" y="0px"
	 width="809.838px" height="1084.229px" viewBox="0 0 809.838 1084.229" enable-background="new 0 0 809.838 1084.229"
	 xml:space="preserve">
<g>
	<path d="M589.488,344.333c-0.006-0.007-0.012-0.015-0.017-0.023c-1.279-1.855-2.583-3.696-3.921-5.517
		c-0.079-0.107-0.155-0.217-0.234-0.324c-6.669-9.038-14.057-17.642-22.146-25.732c-42.271-42.27-98.473-65.55-158.252-65.55
		c-59.778,0-115.979,23.28-158.25,65.55c-8.091,8.09-15.479,16.695-22.148,25.733c-0.078,0.107-0.154,0.216-0.233,0.324
		c-1.339,1.82-2.642,3.661-3.921,5.516c-0.006,0.007-0.011,0.015-0.016,0.023c-25.498,36.99-39.231,80.764-39.231,126.654
		c0,59.779,23.279,115.981,65.55,158.252c42.271,42.27,98.472,65.55,158.25,65.55c59.779,0,115.981-23.28,158.252-65.55
		c42.27-42.271,65.549-98.472,65.549-158.252C628.719,425.098,614.985,381.324,589.488,344.333z M488.315,461.803l26.147,45.338
		l-57.941,22.809c-2.535-8.238-5.173-13.409-6.644-15.929l4.433-15.915c4.997-0.207,14.071-1.594,20.322-8.447
		c5.264-5.771,7.262-13.929,5.979-24.271c2.848-1.021,4.796-1.483,4.926-1.514C486.764,463.599,487.743,462.818,488.315,461.803z
		 M472.402,469.032c0.395,6.458-0.949,11.443-4.034,14.849c-3.605,3.979-9.021,5.227-12.748,5.593
		C457.199,479.473,465.108,472.978,472.402,469.032z M458.745,538.231l68.041-26.782l-44.942-77.927H467.3
		c-2.354,0-4.261,1.907-4.261,4.261c0,2.354,1.907,4.262,4.261,4.262h9.621l7.735,13.413c-0.322-0.004-0.65,0.025-0.979,0.099
		c-1.522,0.34-37.028,8.612-36.865,37.711l-5.648,20.277l-0.528,1.962l1.16,1.65c0.142,0.202,14.145,20.723,12.671,70.445
		c-0.101,3.405-0.382,6.593-0.827,9.562c-0.345,0.724-0.479,1.523-0.389,2.316c-2.251,11.984-7.471,19.957-15.215,23.092
		c-0.053,0.021-0.105,0.04-0.157,0.062c-0.821,0.324-1.667,0.602-2.544,0.816c-8.431,2.065-18.235-1.518-24.053-8.34l38.818-26.906
		l-4.375-3.579c-10.819-8.855-25.261-13.732-40.662-13.732c-15.391,0-29.824,4.871-40.644,13.718l-4.354,3.56l38.872,27.258
		c-5.849,6.617-15.482,10.058-23.784,8.022c-0.997-0.244-1.954-0.566-2.879-0.951c-0.088-0.039-0.178-0.074-0.269-0.108
		c-9.8-4.256-15.438-16.436-15.982-34.79c-1.473-49.679,12.607-69.826,12.735-70.005l1.278-1.732l-7.011-22.662
		c0.109-29.046-35.345-37.307-36.866-37.646c-0.228-0.051-0.454-0.077-0.68-0.091l7.741-13.421h10.231
		c2.354,0,4.261-1.907,4.261-4.262c0-2.354-1.907-4.261-4.261-4.261h-15.155l-44.941,77.927l68.425,26.934
		c-2.793,11.829-4.911,28.069-4.277,49.473c0.02,0.657,0.057,1.286,0.088,1.924l-91.722-69.688l20.041-34.649l0.04,0.103l4.42-7.654
		c0-0.001,0.001-0.002,0.002-0.004l0.085-0.147l50.795-87.979l73.806-19.915l73.831,19.915l55.312,95.804l0.04-0.104l20.029,34.631
		l-91.361,69.415c0.025-0.55,0.058-1.088,0.074-1.651C463.619,566.437,461.518,550.13,458.745,538.231z M404.874,609.184
		l-30.411-21.325c8.638-5.475,19.295-8.441,30.6-8.441c11.301,0,21.955,2.965,30.589,8.434L404.874,609.184z M405.244,621.168
		c6.33,7.123,15.762,11.395,25.122,11.394c1.404,0,2.806-0.108,4.195-0.306c-3.006,11.092-14.686,18.899-29.503,18.899
		c-14.512,0-26.327-7.958-29.449-18.946c1.494,0.229,3.002,0.353,4.514,0.353C389.482,632.562,398.915,628.291,405.244,621.168z
		 M321.678,462.062c0.586,0.889,1.502,1.562,2.623,1.812c0.077,0.018,2.038,0.472,4.926,1.5
		c-1.286,10.349,0.712,18.512,5.978,24.285c6.292,6.898,15.443,8.258,20.419,8.451l5.053,16.332
		c-1.496,2.525-4.118,7.61-6.641,15.671l-58.355-22.972L321.678,462.062z M337.438,469c7.297,3.935,15.213,10.431,16.783,20.476
		c-3.727-0.365-9.146-1.614-12.752-5.596C338.379,480.47,337.035,475.474,337.438,469z M298.01,430.213l-60.255-77.039
		l84.564,35.008L298.01,430.213z M293.396,438.147l-4.161,7.235l-11.862,20.51l-38.246-97.13L293.396,438.147z M487.82,388.177
		l84.313-35.006l-59.985,77.068L487.82,388.177z M533.197,464.751l-16.347-26.678l53.896-69.246L533.197,464.751z M404.918,254.497
		c70.818,0,133.802,34.181,173.324,86.91l-96.836,40.205l-76.348-20.594l-76.325,20.594l-97.134-40.21
		C271.121,288.676,334.104,254.497,404.918,254.497z M188.427,470.988c0-43.602,12.97-84.227,35.235-118.242l48.261,122.568
		l-25.312,43.764c-0.045,0.077-0.082,0.157-0.121,0.236c-0.016,0.031-0.033,0.061-0.047,0.092c-0.107,0.228-0.189,0.461-0.253,0.696
		c-0.009,0.03-0.019,0.061-0.025,0.091c-0.06,0.241-0.096,0.484-0.112,0.729c-0.002,0.027-0.005,0.055-0.006,0.082
		c-0.012,0.246-0.001,0.491,0.029,0.734c0.003,0.027,0.006,0.055,0.01,0.083c0.035,0.241,0.092,0.478,0.167,0.709
		c0.01,0.029,0.018,0.059,0.028,0.087c0.08,0.23,0.182,0.453,0.301,0.667c0.015,0.026,0.027,0.053,0.043,0.079
		c0.127,0.217,0.273,0.422,0.439,0.615c0.016,0.019,0.03,0.038,0.047,0.057c0.173,0.195,0.366,0.375,0.578,0.539
		c0.012,0.009,0.021,0.021,0.033,0.03l98.389,74.754l-64.155,49.708C225.49,609.957,188.427,544.725,188.427,470.988z
		 M289.454,654.038l37.227-28.843l37.188,58.364C336.971,678.376,311.832,668.204,289.454,654.038z M373.583,685.205l-41.1-64.506
		l17.801-13.792c3.711,12.615,10.421,18.958,16.116,22.144c1.534,17.375,17.955,30.627,38.658,30.627
		c20.678,0,37.083-13.158,38.653-30.421c5.71-3.082,12.547-9.326,16.366-21.943l17.276,13.386l-41.101,64.506
		c-10.234,1.49-20.694,2.275-31.336,2.275C394.277,687.48,383.817,686.695,373.583,685.205z M445.969,683.56l37.188-58.364
		l37.227,28.843C498.005,668.204,472.866,678.376,445.969,683.56z M527.881,649.066l-64.004-49.591l101.535-77.145l-27.196-47.021
		l47.972-122.545c22.258,34.012,35.223,74.63,35.223,118.224C621.41,544.725,584.347,609.957,527.881,649.066z"/>
	<g>
		<g>
			<path d="M218.651,808.881v36.521h-8.705v-93.854h24.218c4.93,0,9.293,0.611,13.088,1.832c3.798,1.224,7.002,2.992,9.623,5.303
				c2.617,2.312,4.602,5.148,5.954,8.508c1.351,3.362,2.027,7.2,2.027,11.521c0,4.363-0.763,8.387-2.29,12.074
				c-1.526,3.687-3.72,6.872-6.575,9.555c-2.858,2.686-6.339,4.777-10.439,6.282c-4.104,1.508-8.748,2.26-13.94,2.26H218.651z
				 M218.651,759.532v41.363h12.435c8.072,0,14.203-1.876,18.391-5.628c4.19-3.751,6.286-9.055,6.286-15.905
				c0-13.221-7.727-19.83-23.171-19.83H218.651z"/>
			<g>
				<g>
					<g>
						<path d="M308.513,751.547h-8.771l-35.735,93.854h9.688l10.077-27.751h40.25l10.344,27.751h9.685L308.513,751.547z
							 M286.717,809.73l15.186-41.756c0.303-0.828,0.621-1.789,0.949-2.881c0.327-1.087,0.621-2.333,0.884-3.729h0.263
							c0.216,1.396,0.488,2.643,0.815,3.729c0.328,1.092,0.643,2.053,0.949,2.881l15.315,41.756H286.717z"/>
					</g>
				</g>
			</g>
			<g>
				<polygon points="299.613,743.889 292.543,743.889 307.466,722.424 316.301,722.424 				"/>
			</g>
			<path d="M423.112,845.401l-52.096-75.332c-0.655-0.958-1.301-1.94-1.932-2.944c-0.633-1.005-1.146-1.984-1.539-2.945h-0.327
				c0.087,0.785,0.164,1.876,0.229,3.272c0.068,1.396,0.099,3.14,0.099,5.235v72.714h-8.705v-93.854h9.623l51.246,74.416
				c0.785,1.178,1.493,2.281,2.126,3.304c0.634,1.026,1.212,1.975,1.734,2.85h0.327c-0.173-1.44-0.306-3.054-0.393-4.846
				c-0.087-1.786-0.13-3.773-0.13-5.955v-69.769h8.771v93.854H423.112z"/>
			<path d="M465.195,759.532v35.343h34.296v7.918h-34.296v42.608h-8.705v-93.854h45.748v7.985H465.195z"/>
			<path d="M529.074,845.401h-8.705v-93.854h8.705V845.401z"/>
			<path d="M553.488,845.401v-93.854h8.705v85.934h37.697v7.921H553.488z"/>
		</g>
	</g>
</g>
</svg>
